SplineFontDB: 3.0
FontName: Untitled1
FullName: Untitled1
FamilyName: Untitled1
Weight: Medium
Copyright: Created by redhat with FontForge 2.0 (http://fontforge.sf.net)
UComments: "2012-1-11: Created." 
Version: 001.000
ItalicAngle: 0
UnderlinePosition: -100
UnderlineWidth: 50
Ascent: 800
Descent: 200
LayerCount: 2
Layer: 0 0 "Back"  1
Layer: 1 0 "Fore"  0
NeedsXUIDChange: 1
XUID: [1021 1002 697144359 9887545]
OS2Version: 0
OS2_WeightWidthSlopeOnly: 0
OS2_UseTypoMetrics: 1
CreationTime: 1326250725
ModificationTime: 1326256946
OS2TypoAscent: 0
OS2TypoAOffset: 1
OS2TypoDescent: 0
OS2TypoDOffset: 1
OS2TypoLinegap: 0
OS2WinAscent: 0
OS2WinAOffset: 1
OS2WinDescent: 0
OS2WinDOffset: 1
HheadAscent: 0
HheadAOffset: 1
HheadDescent: 0
HheadDOffset: 1
OS2Vendor: 'PfEd'
DEI: 91125
Encoding: ISO8859-1
UnicodeInterp: none
NameList: Adobe Glyph List
DisplaySize: -48
AntiAlias: 1
FitToEm: 1
WinInfo: 0 27 11
BeginChars: 256 20

StartChar: a
Encoding: 97 97 0
Width: 1000
VWidth: 0
Flags: HO
LayerCount: 2
Fore
SplineSet
660.527 459.993 m 0
 660.527 371.342 588.657 299.471 500 299.471 c 0
 411.344 299.471 339.474 371.342 339.474 459.993 c 0
 339.474 548.65 411.344 620.521 500 620.521 c 0
 588.657 620.521 660.527 548.65 660.527 459.993 c 0
340 267.996 m 2
 660 267.996 l 2
 730.912 267.996 788 207.434 788 139.997 c 2
 788 -52 l 1
 212 -52 l 1
 212 139.997 l 2
 212 210.908 269.089 267.996 340 267.996 c 2
EndSplineSet
EndChar

StartChar: b
Encoding: 98 98 1
Width: 1000
VWidth: 0
Flags: HO
LayerCount: 2
Fore
SplineSet
276 652 m 1
 532 652 l 2
 602.912 652 660 594.912 660 524 c 2
 660 460 l 1
 724 460 l 2
 794.912 460 852 402.912 852 332 c 2
 852 76 l 2
 852 5.08789 794.912 -52 724 -52 c 2
 468 -52 l 2
 397.088 -52 340 5.08789 340 76 c 2
 340 140 l 1
 276 140 l 2
 205.088 140 148 197.088 148 268 c 2
 148 524 l 2
 148 594.912 205.088 652 276 652 c 1
276 588 m 2
 240.544 588 212 559.456 212 524 c 2
 212 268 l 2
 212 232.544 238.586 204 276 204 c 2
 340 204 l 1
 340 332 l 1
 404 268 l 1
 404 204 l 1
 468 204 l 1
 532 140 l 1
 404 140 l 1
 404 76 l 2
 404 40.5439 432.544 12 468 12 c 2
 724 12 l 2
 759.456 12 788 40.5439 788 76 c 2
 788 332 l 2
 788 367.456 759.456 396 724 396 c 2
 660 396 l 1
 660 268 l 1
 596 332 l 1
 596 396 l 1
 532 396 l 1
 468 460 l 1
 596 460 l 1
 596 524 l 2
 596 559.456 567.456 588 532 588 c 2
 276 588 l 2
EndSplineSet
EndChar

StartChar: c
Encoding: 99 99 2
Width: 1000
VWidth: 0
Flags: HO
LayerCount: 2
Fore
SplineSet
532 268 m 1
 852 268 l 1
 852 -52 l 1
 532 -52 l 1
 532 268 l 1
596 140 m 1
 596 12 l 1
 788 12 l 1
 788 140 l 1
 596 140 l 1
148 268 m 1
 468 268 l 1
 468 -52 l 1
 148 -52 l 1
 148 268 l 1
212 140 m 1
 212 12 l 1
 404 12 l 1
 404 140 l 1
 212 140 l 1
532 652 m 1
 852 652 l 1
 852 332 l 1
 532 332 l 1
 532 652 l 1
596 524 m 1
 596 396 l 1
 788 396 l 1
 788 524 l 1
 596 524 l 1
148 652 m 1
 468 652 l 1
 468 332 l 1
 148 332 l 1
 148 652 l 1
212 524 m 1
 212 396 l 1
 404 396 l 1
 404 524 l 1
 212 524 l 1
EndSplineSet
EndChar

StartChar: d
Encoding: 100 100 3
Width: 1000
VWidth: 0
Flags: HO
LayerCount: 2
Fore
SplineSet
582.169 299.512 m 0
 582.169 254.131 545.381 217.343 500 217.343 c 0
 454.619 217.343 417.831 254.131 417.831 299.512 c 0
 417.831 344.892 454.619 381.68 500 381.68 c 0
 545.381 381.68 582.169 344.892 582.169 299.512 c 0
463.586 651.998 m 1
 537.385 652 l 1
 571.371 549.07 l 1
 626.72 525.766 l 1
 722.853 574.317 l 1
 775.288 522.853 l 1
 726.736 426.72 l 1
 750.041 370.4 l 1
 852 336.414 l 1
 852 262.615 l 1
 750.041 228.629 l 1
 726.736 173.28 l 1
 775.288 76.1768 l 1
 722.853 24.7119 l 1
 626.72 73.2637 l 1
 571.371 49.959 l 1
 537.385 -52 l 1
 463.586 -52 l 1
 429.6 49.959 l 1
 373.28 73.2637 l 1
 278.119 24.7119 l 1
 225.683 77.1475 l 1
 274.234 173.28 l 1
 250.93 228.629 l 1
 148 263.586 l 1
 148 335.442 l 1
 148 336.412 l 1
 249.959 370.398 l 1
 274.234 426.719 l 1
 225.683 521.88 l 1
 278.119 574.315 l 1
 373.28 525.764 l 1
 429.6 550.04 l 1
 463.586 651.998 l 1
499.516 456.819 m 0
 412.676 456.819 343.18 386.352 343.18 299.512 c 0
 343.18 212.671 412.676 142.204 499.517 142.204 c 0
 586.357 142.204 656.824 212.671 656.824 299.512 c 0
 656.824 386.352 586.357 456.819 499.516 456.819 c 0
EndSplineSet
EndChar

StartChar: e
Encoding: 101 101 4
Width: 1000
VWidth: 0
Flags: HO
LayerCount: 2
Fore
SplineSet
276.002 587.996 m 1
 532.003 587.996 l 2
 568.113 587.996 596.003 561.737 596.003 523.997 c 2
 596.003 332 l 2
 596.003 323.481 593.04 316.153 590.007 308 c 1
 631.397 285.044 664.194 247.495 680.008 202.005 c 1
 741.193 192.398 788.009 139.881 788.009 75.9971 c 1
 823.355 75.9971 852.01 47.3447 852.01 11.998 c 0
 852.01 -23.3428 823.355 -52.001 788.009 -52.001 c 2
 212.001 -52.001 l 2
 176.654 -52.001 148 -23.3428 148 11.998 c 0
 148 47.3447 176.654 75.9971 212.001 75.9971 c 1
 212.001 98.998 212.001 139.996 212.001 139.996 c 2
 212.001 174.498 238.667 204.002 276.002 204.002 c 2
 320.003 204.002 l 1
 324.816 217.454 332.536 230.075 340.003 242.004 c 1
 340.003 268.001 l 1
 276.002 268.001 l 2
 232.654 268.001 212.001 292.608 212.001 332 c 2
 212.001 523.997 l 2
 212.001 561.078 236.528 587.996 276.002 587.996 c 1
276.002 523.997 m 1
 276.002 332 l 1
 500.005 332 l 1
 532.006 332 l 1
 532.006 523.997 l 1
 340.003 523.997 l 1
 276.002 523.997 l 1
340.003 459.998 m 1
 468.005 459.998 l 1
 468.005 395.999 l 1
 340.003 395.999 l 1
 340.003 459.998 l 1
500.005 268.001 m 1
 500.005 267.988 l 1
 444.146 267.988 397.575 230.535 380.003 179.989 c 0
 373.437 161.442 360.141 144.527 340.003 139.983 c 0
 336.772 139.279 333.6 137.999 330.003 137.999 c 0
 301.085 137.999 276.002 109.424 276.002 75.9971 c 0
 276.002 61.1045 272.315 43.9971 244.001 43.9971 c 0
 223.676 43.9971 212.001 31.6709 212.001 11.998 c 1
 532.006 11.998 l 2
 578.775 11.998 583.709 27.9717 596.006 43.9971 c 1
 606.483 25.8535 610.271 11.998 660.007 11.998 c 2
 788.009 11.998 l 1
 788.009 31.6709 776.335 43.9971 756.009 43.9971 c 0
 727.694 43.9971 724.008 61.1045 724.008 75.9971 c 0
 724.008 109.424 698.924 137.999 670.008 137.999 c 0
 643.985 137.999 627.627 158.479 620.007 180.002 c 0
 602.436 230.555 555.863 268.001 500.005 268.001 c 1
EndSplineSet
EndChar

StartChar: f
Encoding: 102 102 5
Width: 1000
VWidth: 0
Flags: HO
LayerCount: 2
Fore
SplineSet
276.553 299.99 m 0
 276.552 176.585 376.594 76.5469 499.999 76.5469 c 0
 623.406 76.5469 723.447 176.585 723.447 299.99 c 0
 723.447 423.401 623.406 523.439 500 523.439 c 0
 376.593 523.439 276.552 423.401 276.553 299.99 c 0
296.354 141.603 m 1
 341.608 96.3486 l 1
 703.646 458.384 l 1
 658.392 503.638 l 1
 296.354 141.603 l 1
500 587.439 m 0
 658.753 587.439 787.447 458.748 787.447 299.99 c 0
 787.447 141.238 658.753 12.5469 499.999 12.5469 c 0
 341.247 12.5469 212.553 141.238 212.553 299.99 c 0
 212.553 458.748 341.247 587.439 500 587.439 c 0
EndSplineSet
EndChar

StartChar: l
Encoding: 108 108 6
Width: 1000
VWidth: 0
Flags: HO
LayerCount: 2
Fore
SplineSet
404 651.99 m 2
 596 651.99 l 1
 660 651.99 l 2
 730.912 651.99 788 594.903 788 523.992 c 2
 788 267.996 l 1
 823.456 267.996 852 239.452 852 203.997 c 2
 852 139.998 l 1
 788 139.998 l 1
 724 139.998 l 2
 688.544 139.998 660 168.541 660 203.997 c 2
 660 267.996 l 1
 660 523.992 l 2
 660 559.447 631.456 587.991 596 587.991 c 2
 404 587.991 l 2
 368.544 587.991 340 559.447 340 523.992 c 2
 340 267.996 l 1
 375.456 267.996 404 239.452 404 203.997 c 2
 404 139.998 l 2
 404 104.542 432.544 75.998 468 75.998 c 2
 596 75.998 l 1
 660 75.998 l 1
 660 40.543 631.456 11.999 596 11.999 c 2
 468 11.999 l 2
 397.088 11.999 340 69.0869 340 139.998 c 2
 340 203.997 l 1
 276 203.997 l 1
 212 203.997 l 1
 212 239.452 240.544 267.996 276 267.996 c 2
 340 267.996 l 2
 306.157 267.996 276 291.793 276 331.995 c 2
 276 523.992 l 2
 276 594.903 333.088 651.99 404 651.99 c 2
468.526 524.519 m 0
 486.491 506.555 486.491 477.431 468.526 459.467 c 0
 450.563 441.502 421.438 441.502 403.474 459.467 c 0
 385.509 477.431 385.509 506.556 403.474 524.519 c 0
 421.438 542.483 450.562 542.483 468.526 524.519 c 0
596.526 524.519 m 0
 614.491 506.555 614.491 477.431 596.526 459.467 c 0
 578.563 441.502 549.438 441.502 531.474 459.467 c 0
 513.509 477.431 513.509 506.556 531.474 524.519 c 0
 549.438 542.483 578.562 542.483 596.526 524.519 c 0
404 395.994 m 1
 596 395.994 l 1
 500 235.996 l 1
 404 395.994 l 1
340 11.999 m 2
 404 11.999 l 2
 439.456 11.999 468 -16.5439 468 -52 c 1
 404 -52 l 1
 340 -52 l 1
 276 -52 l 1
 276 -16.5439 304.544 11.999 340 11.999 c 2
660 11.999 m 2
 724 11.999 l 2
 759.456 11.999 788 -16.5439 788 -52 c 1
 724 -52 l 1
 660 -52 l 1
 596 -52 l 1
 596 -16.5439 624.544 11.999 660 11.999 c 2
EndSplineSet
EndChar

StartChar: w
Encoding: 119 119 7
Width: 1000
VWidth: 0
Flags: HO
LayerCount: 2
Fore
SplineSet
255.161 267.99 m 2
 447.161 267.99 l 1
 404.494 75.9902 l 2
 397.124 42.8252 369.542 11.9902 326.271 11.9902 c 2
 210.64 11.9902 l 2
 154.922 11.9902 138.256 41.4043 153.211 97.2188 c 1
 176.938 203.99 l 2
 186.608 247.503 220.984 267.99 255.161 267.99 c 2
212.001 331.99 m 1
 254.668 523.989 l 2
 262.038 557.161 289.619 587.989 332.89 587.989 c 2
 460.89 587.989 l 2
 494.491 587.989 521.416 571.074 510.123 528.931 c 2
 460.89 331.99 l 1
 212.001 331.99 l 1
788 267.99 m 1
 738.223 75.9902 l 1
 730.853 42.8252 703.271 11.9902 660 11.9902 c 2
 532 11.9902 l 2
 502.65 11.9902 473.315 36.1367 484.09 76.3486 c 2
 532 267.99 l 1
 788 267.99 l 1
724 331.99 m 2
 532 331.99 l 1
 542.766 375.049 l 1
 596 587.989 l 1
 852 587.989 l 1
 802.223 395.989 l 1
 792.553 352.482 758.177 331.99 724 331.99 c 2
EndSplineSet
EndChar

StartChar: m
Encoding: 109 109 8
Width: 1000
VWidth: 0
Flags: HO
LayerCount: 2
Fore
SplineSet
596 652 m 1
 596 588 l 2
 596 552.544 567.456 524 532 524 c 1
 532 488.544 503.456 460 468 460 c 1
 468 524 l 2
 468 559.456 496.544 588 532 588 c 1
 532 623.456 560.544 652 596 652 c 1
212 268 m 2
 212 377.21 270.846 460 372 460 c 0
 424.275 460 459.23 396 500 396 c 0
 543.101 396 586.815 460 628 460 c 0
 713.433 460 788 399.315 788 332 c 1
 724 332 l 2
 674.662 332 660 313.344 660 268 c 0
 659.373 234.521 679.533 198.176 724 204 c 1
 788 204 l 1
 788 65.1133 699.064 -52 596 -52 c 0
 560.544 -52 542 -23.4561 500 -23.4561 c 0
 458 -23.4561 439.456 -52 404 -52 c 0
 318.544 -52 212 113.396 212 204 c 2
 212 268 l 2
EndSplineSet
EndChar

StartChar: x
Encoding: 120 120 9
Width: 1000
VWidth: 0
Flags: HO
LayerCount: 2
Fore
SplineSet
852.001 299.993 m 0
 852.001 105.594 694.404 -52 500 -52 c 0
 305.596 -52 148 105.594 148 299.993 c 0
 148 494.406 305.596 652 500 652 c 0
 694.404 652 852.001 494.406 852.001 299.993 c 0
275.999 428 m 1
 403.999 300 l 1
 275.999 172 l 1
 371.999 75.9873 l 1
 499.999 204 l 1
 627.999 75.9873 l 1
 724 172 l 1
 595.999 299.987 l 1
 724 428 l 1
 627.999 523.987 l 1
 499.999 396 l 1
 371.999 523.987 l 1
 275.999 428 l 1
EndSplineSet
EndChar

StartChar: g
Encoding: 103 103 10
Width: 1000
VWidth: 0
Flags: HO
LayerCount: 2
Fore
SplineSet
340.003 555.991 m 0
 340.003 573.668 354.332 587.991 372.002 587.991 c 0
 389.672 587.991 404.002 573.668 404.002 555.991 c 2
 404.002 523.992 l 1
 372.002 523.992 l 2
 354.332 523.992 340.003 538.321 340.003 555.991 c 0
723.997 555.991 m 0
 723.997 538.321 709.668 523.992 691.997 523.992 c 2
 659.998 523.992 l 1
 659.998 555.991 l 2
 659.998 573.668 674.327 587.991 691.997 587.991 c 0
 709.668 587.991 723.997 573.668 723.997 555.991 c 0
340.003 107.998 m 0
 340.003 125.675 354.332 139.997 372.002 139.997 c 2
 404.002 139.997 l 1
 404.002 107.998 l 2
 404.002 90.3281 389.672 75.998 372.002 75.998 c 0
 354.332 75.998 340.003 90.3281 340.003 107.998 c 0
723.997 107.998 m 0
 723.997 90.3281 709.668 75.998 691.997 75.998 c 0
 674.327 75.998 659.998 90.3281 659.998 107.998 c 2
 659.998 139.997 l 1
 691.997 139.997 l 2
 709.668 139.997 723.997 125.675 723.997 107.998 c 0
595.999 619.99 m 0
 595.999 602.32 581.67 587.991 563.999 587.991 c 0
 546.329 587.991 532 602.32 532 619.99 c 0
 532 637.667 546.329 651.99 563.999 651.99 c 0
 581.67 651.99 595.999 637.667 595.999 619.99 c 0
532 619.99 m 0
 532 602.32 517.67 587.991 500 587.991 c 0
 482.33 587.991 468.001 602.32 468.001 619.99 c 0
 468.001 637.667 482.33 651.99 500 651.99 c 0
 517.67 651.99 532 637.667 532 619.99 c 0
441.134 331.995 m 0
 441.716 306.689 452.577 282.178 470.899 264.738 c 0
 512.077 225.552 584.806 238.748 611.902 288.687 c 0
 639.07 338.766 609.842 405.747 554.707 420.006 c 0
 499.277 434.342 439.79 389.235 441.134 331.995 c 0
723.997 331.995 m 0
 723.421 292.456 711.057 253.391 688.573 220.854 c 0
 636.869 146.026 530.707 119.485 448.763 158.935 c 0
 366.939 198.32 322.441 297.173 347.285 384.558 c 0
 372.508 473.279 464.884 534.174 556.454 522.449 c 0
 649.412 510.552 725.341 425.747 723.997 331.995 c 0
276.004 -52 m 2
 236.49 -52 212.004 -28.2178 212.004 11.999 c 2
 212.645 587.991 l 1
 214.948 625.942 237.63 651.99 276.004 651.99 c 0
 286.979 651.223 389.89 651.99 404.002 651.99 c 0
 451.227 651.99 452.424 587.991 404.002 587.991 c 0
 385.205 587.991 294.787 587.991 275.997 587.991 c 1
 275.997 395.994 275.997 203.996 275.997 11.999 c 1
 446.657 11.999 617.323 11.999 787.99 11.999 c 1
 787.99 203.996 787.99 395.994 787.99 587.991 c 1
 659.998 587.991 l 2
 614.092 587.991 614.328 651.99 659.998 651.99 c 0
 674.449 651.03 773.199 651.99 787.996 651.99 c 0
 831.688 651.99 851.995 619.556 851.995 587.991 c 2
 851.995 11.999 l 2
 851.995 -25.9521 823.343 -52 787.996 -52 c 2
 276.004 -52 l 2
EndSplineSet
EndChar

StartChar: h
Encoding: 104 104 11
Width: 1000
VWidth: 0
Flags: H
LayerCount: 2
Fore
SplineSet
595.999 523.992 m 2
 595.999 556.279 565.51 587.997 532 587.997 c 1
 532 395.994 l 1
 723.997 395.994 l 1
 723.997 427.507 703.984 459.993 659.998 459.993 c 2
 595.999 459.993 l 1
 595.999 523.992 l 2
212.004 651.99 m 1
 532 651.99 l 2
 560.582 651.99 595.999 651.99 627.998 619.99 c 2
 755.997 491.992 l 2
 787.996 459.993 787.99 429.702 787.996 395.994 c 2
 787.996 -51.9746 l 1
 212.004 -52 l 1
 212.004 651.99 l 1
EndSplineSet
EndChar

StartChar: i
Encoding: 105 105 12
Width: 1000
VWidth: 0
Flags: H
LayerCount: 2
Fore
SplineSet
212 652 m 1
 596 652 l 2
 623.865 652 638.604 643.398 660 622.003 c 2
 748 532 l 2
 769.958 510.048 788 489.702 788 460 c 2
 788 -52 l 1
 212 -52 l 1
 212 652 l 1
276 588 m 1
 276 12 l 1
 724 12 l 1
 724 396 l 1
 532 396 l 1
 532 588 l 1
 276 588 l 1
596 588 m 1
 596 460 l 1
 724 460 l 1
 596 588 l 1
404 332 m 2
 468 332 l 1
 468 268 l 1
 404 268 l 1
 404 204 l 1
 404 140 l 1
 468 140 l 1
 468 76 l 1
 404 76 l 2
 368.544 76 340 104.544 340 140 c 2
 340 204 l 1
 340 268 l 2
 340 303.456 368.544 332 404 332 c 2
532 332 m 1
 596 332 l 2
 631.456 332 660 303.456 660 268 c 2
 660 204 l 1
 660 140 l 2
 660 104.544 631.456 76 596 76 c 2
 532 76 l 1
 532 140 l 1
 596 140 l 1
 596 204 l 1
 596 268 l 1
 532 268 l 1
 532 332 l 1
EndSplineSet
EndChar

StartChar: j
Encoding: 106 106 13
Width: 1000
VWidth: 0
Flags: H
LayerCount: 2
Fore
SplineSet
787.996 651.99 m 2
 824.104 651.99 851.995 625.731 851.995 587.991 c 2
 851.995 203.996 l 2
 851.995 173.283 833.436 139.997 787.996 139.997 c 2
 595.999 139.997 l 1
 595.999 11.999 l 1
 659.998 11.999 l 2
 696.106 11.999 723.997 -14.2598 723.997 -52 c 1
 276.004 -52 l 1
 276.004 -17.5039 302.672 11.999 340.003 11.999 c 2
 404.002 11.999 l 1
 404.002 139.997 l 1
 212.004 139.997 l 2
 168.658 139.997 148.005 164.605 148.005 203.996 c 2
 148.005 587.991 l 2
 148.005 625.072 172.529 651.99 212.004 651.99 c 2
 787.996 651.99 l 2
EndSplineSet
EndChar

StartChar: k
Encoding: 107 107 14
Width: 1000
VWidth: 0
Flags: H
LayerCount: 2
Fore
SplineSet
852 459.995 m 1
 148.108 459.995 l 1
 212 651.995 l 1
 788 651.995 l 1
 852 459.995 l 1
852 -52.0049 m 1
 148.077 -52.0049 l 1
 148.077 395.995 l 1
 468.077 395.995 l 1
 468.077 267.995 l 1
 532.077 267.995 l 1
 532.077 395.995 l 1
 852 395.995 l 1
 852 -52.0049 l 1
EndSplineSet
EndChar

StartChar: n
Encoding: 110 110 15
Width: 1000
VWidth: 0
Flags: HO
LayerCount: 2
Fore
SplineSet
468.001 524 m 1
 564 524 l 2
 626.405 524 692 477.499 692 396 c 2
 691.999 268 l 1
 787.999 268 l 1
 659.999 76 l 1
 532 268 l 1
 628 268 l 1
 628.001 396 l 2
 628.001 434.545 591.104 460 564 460 c 2
 499.999 460 l 1
 468.001 524 l 1
531.999 76 m 1
 436 76 l 2
 373.594 76 308 122.502 308 204 c 2
 308.001 332 l 1
 212.001 332 l 1
 340.001 524 l 1
 468 332 l 1
 372 332 l 1
 371.999 204 l 2
 371.999 165.455 408.896 140 436 140 c 2
 500.001 140 l 1
 531.999 76 l 1
EndSplineSet
EndChar

StartChar: r
Encoding: 114 114 16
Width: 1000
VWidth: 0
Flags: HO
LayerCount: 2
Fore
SplineSet
468.001 524 m 1
 564 524 l 2
 626.405 524 692 477.499 692 396 c 2
 691.999 268 l 1
 787.999 268 l 1
 659.999 76 l 1
 532 268 l 1
 628 268 l 1
 628.001 396 l 2
 628.001 434.545 591.104 460 564 460 c 2
 499.999 460 l 1
 468.001 524 l 1
531.999 76 m 1
 436 76 l 2
 373.594 76 308 122.502 308 204 c 2
 308.001 332 l 1
 212.001 332 l 1
 340.001 524 l 1
 468 332 l 1
 372 332 l 1
 371.999 204 l 2
 371.999 165.455 408.896 140 436 140 c 2
 500.001 140 l 1
 531.999 76 l 1
EndSplineSet
EndChar

StartChar: o
Encoding: 111 111 17
Width: 1000
VWidth: 0
Flags: HO
LayerCount: 2
Fore
SplineSet
500 651.99 m 1
 583.008 395.171 l 1
 852 395.171 l 1
 634.31 236.572 l 1
 717.548 -20.2021 l 1
 500 138.602 l 1
 282.452 -20.2021 l 1
 365.69 236.547 l 1
 148 395.146 l 1
 416.992 395.146 l 1
 500 651.99 l 1
EndSplineSet
EndChar

StartChar: p
Encoding: 112 112 18
Width: 1000
VWidth: 0
Flags: HO
LayerCount: 2
Fore
SplineSet
499.611 498.985 m 1
 451.909 344.464 l 1
 297.321 344.464 l 1
 422.426 260.246 l 1
 374.589 112.688 l 1
 499.611 203.945 l 1
 624.634 112.688 l 1
 576.799 260.233 l 1
 701.902 344.451 l 1
 547.314 344.387 l 1
 499.611 498.985 l 1
499.995 651.99 m 1
 583.003 395.171 l 1
 851.995 395.171 l 1
 634.305 236.572 l 1
 717.543 -20.2021 l 1
 499.995 138.602 l 1
 282.447 -20.2021 l 1
 365.686 236.547 l 1
 147.995 395.146 l 1
 416.987 395.146 l 1
 499.995 651.99 l 1
EndSplineSet
EndChar

StartChar: q
Encoding: 113 113 19
Width: 1000
VWidth: 0
Flags: HO
LayerCount: 2
Fore
SplineSet
468 140 m 1
 468 76 l 1
 532 76 l 1
 532 140 l 1
 468 140 l 1
452 396 m 1
 468 204 l 1
 532 204 l 1
 548 396 l 1
 452 396 l 1
148 12 m 1
 468 588 l 1
 532 588 l 1
 852 12 l 1
 852 -52 l 1
 148 -52 l 1
 148 12 l 1
EndSplineSet
EndChar
